<svg xmlns="http://www.w3.org/2000/svg" viewBox="0 0 600 180" width="600" height="180"><text x="300" y="30" text-anchor="middle" font-size="14" fill="#1A3C6D" font-weight="700">小學數學 → 中學數學：不是更難，是不同</text><rect x="0" y="65" width="80" height="40" fill="#DBEAFE" stroke="#1A3C6D" stroke-width="2"/><text x="40" y="82" text-anchor="middle" font-size="11" fill="#1A3C6D" font-weight="700">P1-P3</text><text x="40" y="98" text-anchor="middle" font-size="9" fill="#6B7280" font-weight="700">基礎運算</text><line x1="80" y1="85" x2="140" y2="85" stroke="#C9A84C" stroke-width="2"/><polygon points="140,85 130,78 130,92" fill="#C9A84C"/><rect x="140" y="65" width="80" height="40" fill="#DCFCE7" stroke="#1A3C6D" stroke-width="2"/><text x="180" y="82" text-anchor="middle" font-size="11" fill="#1A3C6D" font-weight="700">P4-P6</text><text x="180" y="98" text-anchor="middle" font-size="9" fill="#6B7280" font-weight="700">應用解難</text><line x1="220" y1="85" x2="280" y2="85" stroke="#C9A84C" stroke-width="2"/><polygon points="280,85 270,78 270,92" fill="#C9A84C"/><rect x="280" y="65" width="80" height="40" fill="#FEF3C7" stroke="#1A3C6D" stroke-width="2"/><text x="320" y="82" text-anchor="middle" font-size="11" fill="#1A3C6D" font-weight="700">F1-F2</text><text x="320" y="98" text-anchor="middle" font-size="9" fill="#6B7280" font-weight="700">代數入門</text><line x1="360" y1="85" x2="420" y2="85" stroke="#C9A84C" stroke-width="2"/><polygon points="420,85 410,78 410,92" fill="#C9A84C"/><rect x="420" y="65" width="80" height="40" fill="#DBEAFE" stroke="#1A3C6D" stroke-width="2"/><text x="460" y="82" text-anchor="middle" font-size="11" fill="#1A3C6D" font-weight="700">F3</text><text x="460" y="98" text-anchor="middle" font-size="9" fill="#6B7280" font-weight="700">抽象思維</text><text x="300" y="145" text-anchor="middle" font-size="13" fill="#DC2626" font-weight="700">你現在在這裡！</text><circle cx="220" cy="135" r="4" fill="#DC2626"/></svg>