<svg xmlns="http://www.w3.org/2000/svg" viewBox="0 0 580 110" width="580" height="110"><line x1="30" y1="55" x2="550" y2="55" stroke="#1A3C6D" stroke-width="2.5"/><polygon points="550,55 540,49 540,61" fill="#1A3C6D"/><line x1="40" y1="43" x2="40" y2="67" stroke="#1A3C6D" stroke-width="1.2"/><text x="40" y="81" text-anchor="middle" font-size="10" fill="#1A3C6D" font-weight="700">0</text><line x1="90" y1="43" x2="90" y2="67" stroke="#1A3C6D" stroke-width="1.2"/><text x="90" y="81" text-anchor="middle" font-size="10" fill="#1A3C6D" font-weight="700">1</text><line x1="140" y1="43" x2="140" y2="67" stroke="#1A3C6D" stroke-width="1.2"/><text x="140" y="81" text-anchor="middle" font-size="10" fill="#1A3C6D" font-weight="700">2</text><line x1="190" y1="43" x2="190" y2="67" stroke="#1A3C6D" stroke-width="1.2"/><text x="190" y="81" text-anchor="middle" font-size="10" fill="#1A3C6D" font-weight="700">3</text><line x1="240" y1="43" x2="240" y2="67" stroke="#1A3C6D" stroke-width="1.2"/><text x="240" y="81" text-anchor="middle" font-size="10" fill="#1A3C6D" font-weight="700">4</text><line x1="290" y1="43" x2="290" y2="67" stroke="#1A3C6D" stroke-width="1.2"/><text x="290" y="81" text-anchor="middle" font-size="10" fill="#1A3C6D" font-weight="700">5</text><line x1="340" y1="43" x2="340" y2="67" stroke="#1A3C6D" stroke-width="1.2"/><text x="340" y="81" text-anchor="middle" font-size="10" fill="#1A3C6D" font-weight="700">6</text><line x1="390" y1="43" x2="390" y2="67" stroke="#1A3C6D" stroke-width="1.2"/><text x="390" y="81" text-anchor="middle" font-size="10" fill="#1A3C6D" font-weight="700">7</text><line x1="440" y1="43" x2="440" y2="67" stroke="#1A3C6D" stroke-width="1.2"/><text x="440" y="81" text-anchor="middle" font-size="10" fill="#1A3C6D" font-weight="700">8</text><line x1="490" y1="43" x2="490" y2="67" stroke="#1A3C6D" stroke-width="1.2"/><text x="490" y="81" text-anchor="middle" font-size="10" fill="#1A3C6D" font-weight="700">9</text><line x1="540" y1="43" x2="540" y2="67" stroke="#1A3C6D" stroke-width="1.2"/><text x="540" y="81" text-anchor="middle" font-size="10" fill="#1A3C6D" font-weight="700">10</text><line x1="30" y1="55" x2="190" y2="55" stroke="#16A34A" stroke-width="4"/><circle cx="190" cy="55" r="5" fill="#16A34A" stroke="#16A34A" stroke-width="2"/><text x="190" y="35" text-anchor="middle" font-size="13" fill="#16A34A" font-weight="700">x ≤ 3</text><text x="190" y="93" text-anchor="middle" font-size="9" fill="#16A34A" font-weight="700">●=封閉(含)</text></svg>