<svg xmlns="http://www.w3.org/2000/svg" viewBox="0 0 640 120" width="640" height="120"><line x1="30" y1="55" x2="710" y2="55" stroke="#1A3C6D" stroke-width="2.5"/><polygon points="710,55 700,49 700,61" fill="#1A3C6D"/><line x1="40" y1="40" x2="40" y2="70" stroke="#1A3C6D" stroke-width="1.5"/><text x="40" y="83" text-anchor="middle" font-size="11" fill="#1A3C6D" font-weight="700">-10</text><line x1="95" y1="40" x2="95" y2="70" stroke="#1A3C6D" stroke-width="1.5"/><text x="95" y="83" text-anchor="middle" font-size="11" fill="#1A3C6D" font-weight="700">-8</text><line x1="150" y1="40" x2="150" y2="70" stroke="#1A3C6D" stroke-width="1.5"/><text x="150" y="83" text-anchor="middle" font-size="11" fill="#1A3C6D" font-weight="700">-6</text><line x1="205" y1="40" x2="205" y2="70" stroke="#1A3C6D" stroke-width="1.5"/><text x="205" y="83" text-anchor="middle" font-size="11" fill="#1A3C6D" font-weight="700">-4</text><line x1="260" y1="40" x2="260" y2="70" stroke="#1A3C6D" stroke-width="1.5"/><text x="260" y="83" text-anchor="middle" font-size="11" fill="#1A3C6D" font-weight="700">-2</text><line x1="315" y1="40" x2="315" y2="70" stroke="#1A3C6D" stroke-width="1.5"/><text x="315" y="83" text-anchor="middle" font-size="12" fill="#DC2626" font-weight="700">0</text><line x1="370" y1="40" x2="370" y2="70" stroke="#1A3C6D" stroke-width="1.5"/><text x="370" y="83" text-anchor="middle" font-size="12" fill="#1A3C6D" font-weight="700">2</text><line x1="425" y1="40" x2="425" y2="70" stroke="#1A3C6D" stroke-width="1.5"/><text x="425" y="83" text-anchor="middle" font-size="12" fill="#1A3C6D" font-weight="700">4</text><line x1="480" y1="40" x2="480" y2="70" stroke="#1A3C6D" stroke-width="1.5"/><text x="480" y="83" text-anchor="middle" font-size="12" fill="#1A3C6D" font-weight="700">6</text><line x1="535" y1="40" x2="535" y2="70" stroke="#1A3C6D" stroke-width="1.5"/><text x="535" y="83" text-anchor="middle" font-size="12" fill="#1A3C6D" font-weight="700">8</text><line x1="590" y1="40" x2="590" y2="70" stroke="#1A3C6D" stroke-width="1.5"/><text x="590" y="83" text-anchor="middle" font-size="12" fill="#1A3C6D" font-weight="700">10</text><line x1="315" y1="35" x2="315" y2="75" stroke="#DC2626" stroke-width="3"/><text x="315" y="30" text-anchor="middle" font-size="14" fill="#DC2626" font-weight="700">0</text><text x="35" y="33" text-anchor="start" font-size="11" fill="#DC2626" font-weight="700">負數</text><text x="600" y="33" text-anchor="end" font-size="11" fill="#16A34A" font-weight="700">正數</text></svg>