<svg xmlns="http://www.w3.org/2000/svg" viewBox="0 0 480 480" width="480" height="480"><line x1="30" y1="30" x2="30" y2="450" stroke="#D1D5DB" stroke-width="0.6"/><line x1="30" y1="30" x2="450" y2="30" stroke="#D1D5DB" stroke-width="0.6"/><line x1="65" y1="30" x2="65" y2="450" stroke="#D1D5DB" stroke-width="0.6"/><line x1="30" y1="65" x2="450" y2="65" stroke="#D1D5DB" stroke-width="0.6"/><line x1="100" y1="30" x2="100" y2="450" stroke="#D1D5DB" stroke-width="0.6"/><line x1="30" y1="100" x2="450" y2="100" stroke="#D1D5DB" stroke-width="0.6"/><line x1="135" y1="30" x2="135" y2="450" stroke="#D1D5DB" stroke-width="0.6"/><line x1="30" y1="135" x2="450" y2="135" stroke="#D1D5DB" stroke-width="0.6"/><line x1="170" y1="30" x2="170" y2="450" stroke="#D1D5DB" stroke-width="0.6"/><line x1="30" y1="170" x2="450" y2="170" stroke="#D1D5DB" stroke-width="0.6"/><line x1="205" y1="30" x2="205" y2="450" stroke="#D1D5DB" stroke-width="0.6"/><line x1="30" y1="205" x2="450" y2="205" stroke="#D1D5DB" stroke-width="0.6"/><line x1="240" y1="30" x2="240" y2="450" stroke="#D1D5DB" stroke-width="0.6"/><line x1="30" y1="240" x2="450" y2="240" stroke="#D1D5DB" stroke-width="0.6"/><line x1="275" y1="30" x2="275" y2="450" stroke="#D1D5DB" stroke-width="0.6"/><line x1="30" y1="275" x2="450" y2="275" stroke="#D1D5DB" stroke-width="0.6"/><line x1="310" y1="30" x2="310" y2="450" stroke="#D1D5DB" stroke-width="0.6"/><line x1="30" y1="310" x2="450" y2="310" stroke="#D1D5DB" stroke-width="0.6"/><line x1="345" y1="30" x2="345" y2="450" stroke="#D1D5DB" stroke-width="0.6"/><line x1="30" y1="345" x2="450" y2="345" stroke="#D1D5DB" stroke-width="0.6"/><line x1="380" y1="30" x2="380" y2="450" stroke="#D1D5DB" stroke-width="0.6"/><line x1="30" y1="380" x2="450" y2="380" stroke="#D1D5DB" stroke-width="0.6"/><line x1="415" y1="30" x2="415" y2="450" stroke="#D1D5DB" stroke-width="0.6"/><line x1="30" y1="415" x2="450" y2="415" stroke="#D1D5DB" stroke-width="0.6"/><line x1="450" y1="30" x2="450" y2="450" stroke="#D1D5DB" stroke-width="0.6"/><line x1="30" y1="450" x2="450" y2="450" stroke="#D1D5DB" stroke-width="0.6"/><line x1="12.5" y1="240" x2="467.5" y2="240" stroke="#1A3C6D" stroke-width="2.5"/><line x1="240" y1="32.5" x2="240" y2="467.5" stroke="#1A3C6D" stroke-width="2.5"/><polygon points="467.5,240 459.5,235 459.5,245" fill="#1A3C6D"/><polygon points="240,32.5 235,40.5 245,40.5" fill="#1A3C6D"/><text x="479.5" y="245" text-anchor="middle" font-size="14" fill="#1A3C6D" font-weight="700">x</text><text x="245" y="0.5" text-anchor="middle" font-size="14" fill="#1A3C6D" font-weight="700">y</text><text x="65" y="256" text-anchor="middle" font-size="9" fill="#6B7280" font-weight="700">-5</text><text x="100" y="256" text-anchor="middle" font-size="9" fill="#6B7280" font-weight="700">-4</text><text x="135" y="256" text-anchor="middle" font-size="9" fill="#6B7280" font-weight="700">-3</text><text x="170" y="256" text-anchor="middle" font-size="9" fill="#6B7280" font-weight="700">-2</text><text x="205" y="256" text-anchor="middle" font-size="9" fill="#6B7280" font-weight="700">-1</text><text x="275" y="256" text-anchor="middle" font-size="9" fill="#6B7280" font-weight="700">1</text><text x="310" y="256" text-anchor="middle" font-size="9" fill="#6B7280" font-weight="700">2</text><text x="345" y="256" text-anchor="middle" font-size="9" fill="#6B7280" font-weight="700">3</text><text x="380" y="256" text-anchor="middle" font-size="9" fill="#6B7280" font-weight="700">4</text><text x="415" y="256" text-anchor="middle" font-size="9" fill="#6B7280" font-weight="700">5</text><text x="226" y="419" text-anchor="end" font-size="9" fill="#6B7280" font-weight="700">-5</text><text x="226" y="384" text-anchor="end" font-size="9" fill="#6B7280" font-weight="700">-4</text><text x="226" y="349" text-anchor="end" font-size="9" fill="#6B7280" font-weight="700">-3</text><text x="226" y="314" text-anchor="end" font-size="9" fill="#6B7280" font-weight="700">-2</text><text x="226" y="279" text-anchor="end" font-size="9" fill="#6B7280" font-weight="700">-1</text><text x="226" y="209" text-anchor="end" font-size="9" fill="#6B7280" font-weight="700">1</text><text x="226" y="174" text-anchor="end" font-size="9" fill="#6B7280" font-weight="700">2</text><text x="226" y="139" text-anchor="end" font-size="9" fill="#6B7280" font-weight="700">3</text><text x="226" y="104" text-anchor="end" font-size="9" fill="#6B7280" font-weight="700">4</text><text x="226" y="69" text-anchor="end" font-size="9" fill="#6B7280" font-weight="700">5</text><text x="230" y="256" text-anchor="middle" font-size="13" fill="#DC2626" font-weight="700">O</text><text x="400" y="80" text-anchor="middle" font-size="11" fill="#DC2626" font-weight="700">I</text><text x="80" y="80" text-anchor="middle" font-size="11" fill="#DC2626" font-weight="700">II</text><text x="80" y="410" text-anchor="middle" font-size="11" fill="#DC2626" font-weight="700">III</text><text x="400" y="410" text-anchor="middle" font-size="11" fill="#DC2626" font-weight="700">IV</text><circle cx="345" cy="170" r="5" fill="#DC2626"/><text x="357" y="162" text-anchor="start" font-size="11" fill="#DC2626" font-weight="700">(3,2)</text><line x1="345" y1="170" x2="345" y2="240" stroke="#DC2626" stroke-width="1" stroke-dasharray="3,2"/><line x1="345" y1="170" x2="240" y2="170" stroke="#DC2626" stroke-width="1" stroke-dasharray="3,2"/></svg>